<svg width="287" height="155" viewBox="0 0 287 155" fill="none" xmlns="http://www.w3.org/2000/svg">
<path d="M219.625 114.025H203.875V83.9246C203.875 78.7913 205.158 74.9413 207.725 72.3746C210.292 69.6913 214.258 68.3496 219.625 68.3496H225.925C229.425 68.3496 232.225 69.2829 234.325 71.1496C236.425 73.0163 237.475 76.0496 237.475 80.2496V91.9746H236.775V87.2496C236.775 85.0329 236.308 83.458 235.375 82.5246C234.442 81.5913 232.983 81.1246 231 81.1246H224.875C222.775 81.1246 221.375 81.4746 220.675 82.1746C219.975 82.7579 219.625 84.0996 219.625 86.1996V114.025ZM252.525 153.75H236.775V80.5996V79.3746V68.3496H252.525V153.75ZM203.875 108.075H219.625V135.9C219.625 137.883 219.975 139.225 220.675 139.925C221.375 140.625 222.775 140.975 224.875 140.975H231C232.983 140.975 234.442 140.566 235.375 139.75C236.308 138.816 236.775 137.183 236.775 134.85V130.3H237.475V141.85C237.475 146.05 236.425 149.083 234.325 150.95C232.225 152.816 229.425 153.75 225.925 153.75H219.625C214.258 153.75 210.292 152.466 207.725 149.9C205.158 147.216 203.875 143.366 203.875 138.35V108.075Z" fill="white"/>
<path d="M178.543 53.8252V135.2C178.543 137.184 178.893 138.525 179.593 139.225C180.293 139.925 181.635 140.275 183.618 140.275H190.268V153.75H179.068C173.352 153.75 169.152 152.467 166.468 149.9C163.902 147.217 162.618 143.367 162.618 138.35V53.8252H178.543ZM190.268 68.3502V81.1252H154.568V68.3502H190.268Z" fill="white"/>
<path d="M140.789 153.75H125.039V68.35H140.789V153.75ZM124.689 52.075V36.5H141.139V52.075H124.689Z" fill="white"/>
<path fill-rule="evenodd" clip-rule="evenodd" d="M0 50.75L6.60602 83.7801C8.28874 92.1937 15.6762 98.25 24.2565 98.25H61L53.9901 66.0047C52.2334 57.9236 45.1964 52.0793 36.9302 51.8362L0 50.75ZM11.6575 60.597L15.9215 81.917C16.7162 85.8901 20.2047 88.75 24.2565 88.75H49.2129L44.707 68.0227C43.8774 64.2067 40.5544 61.4469 36.6509 61.3321L11.6575 60.597Z" fill="#00A94F"/>
<path d="M95.407 44.75L72.407 139.75L63.9984 105.75H48.5L60.907 154.25H83.407L111.407 44.75H95.407Z" fill="white"/>
<path d="M269.1 153.75V132.225H286.775V153.75H269.1Z" fill="#00A94F"/>
</svg>
