<svg width="466" height="212" viewBox="0 0 466 212" fill="none" xmlns="http://www.w3.org/2000/svg">
<path d="M431.404 85.4004V135.8C431.404 137.784 431.754 139.125 432.454 139.825C433.154 140.525 434.554 140.875 436.654 140.875H441.029V153.3H432.279C426.679 153.3 422.537 152.017 419.854 149.45C417.287 146.767 416.004 142.917 416.004 137.9V83.4754C416.004 78.3421 417.287 74.4921 419.854 71.9254C422.537 69.2421 426.679 67.9004 432.279 67.9004H441.904V80.3254H436.654C434.554 80.3254 433.154 80.6754 432.454 81.3754C431.754 81.9587 431.404 83.3004 431.404 85.4004ZM450.304 113.225V85.4004C450.304 83.3004 449.954 81.9587 449.254 81.3754C448.671 80.6754 447.329 80.3254 445.229 80.3254H439.629V67.9004H449.429C455.146 67.9004 459.287 69.2421 461.854 71.9254C464.537 74.4921 465.879 78.3421 465.879 83.4754V113.225H450.304ZM449.954 135.625V128.625H465.354V137.9C465.354 142.917 464.071 146.767 461.504 149.45C458.937 152.017 454.796 153.3 449.079 153.3H439.629V140.875H444.704C446.921 140.875 448.321 140.525 448.904 139.825C449.604 139.125 449.954 137.725 449.954 135.625ZM465.879 103.95V115.5H421.604V103.95H465.879Z" fill="#00A94F"/>
<path d="M362.938 153.3H347.188V67.9004H362.938V78.5754V79.6254V153.3ZM395.837 153.3H380.087V85.7504C380.087 83.6504 379.737 82.3087 379.037 81.7254C378.337 81.0254 376.937 80.6754 374.837 80.6754H368.712C366.729 80.6754 365.271 81.1421 364.337 82.0754C363.404 83.0087 362.938 84.5837 362.938 86.8004V92.4004H362.237V79.8004C362.237 75.6004 363.287 72.5671 365.387 70.7004C367.487 68.8337 370.287 67.9004 373.787 67.9004H380.087C385.454 67.9004 389.421 69.2421 391.987 71.9254C394.554 74.4921 395.837 78.3421 395.837 83.4754V153.3Z" fill="#00A94F"/>
<path d="M310.162 120.05V61.6C310.162 59.5 309.812 58.1583 309.112 57.575C308.528 56.875 307.128 56.525 304.912 56.525H299.137V43.75H309.637C315.353 43.75 319.495 45.0917 322.062 47.775C324.745 50.3417 326.087 54.1333 326.087 59.15V120.05H310.162ZM310.162 135.45V112.7H326.087V137.9C326.087 142.917 324.745 146.767 322.062 149.45C319.495 152.017 315.353 153.3 309.637 153.3H298.087V140.525H304.912C307.128 140.525 308.528 140.175 309.112 139.475C309.812 138.775 310.162 137.433 310.162 135.45ZM289.687 61.6V120.225H273.762V59.15C273.762 54.1333 275.045 50.3417 277.612 47.775C280.295 45.0917 284.495 43.75 290.212 43.75H300.712V56.525H294.937C292.837 56.525 291.437 56.875 290.737 57.575C290.037 58.1583 289.687 59.5 289.687 61.6ZM289.687 111.475V135.45C289.687 137.433 290.037 138.775 290.737 139.475C291.437 140.175 292.837 140.525 294.937 140.525H300.362V153.3H290.212C284.495 153.3 280.295 152.017 277.612 149.45C275.045 146.767 273.762 142.917 273.762 137.9V111.475H289.687Z" fill="#00A94F"/>
<path d="M219.625 114.025H203.875V83.9246C203.875 78.7913 205.158 74.9413 207.725 72.3746C210.292 69.6913 214.258 68.3496 219.625 68.3496H225.925C229.425 68.3496 232.225 69.2829 234.325 71.1496C236.425 73.0163 237.475 76.0496 237.475 80.2496V91.9746H236.775V87.2496C236.775 85.0329 236.308 83.458 235.375 82.5246C234.442 81.5913 232.983 81.1246 231 81.1246H224.875C222.775 81.1246 221.375 81.4746 220.675 82.1746C219.975 82.7579 219.625 84.0996 219.625 86.1996V114.025ZM252.525 153.75H236.775V80.5996V79.3746V68.3496H252.525V153.75ZM203.875 108.075H219.625V135.9C219.625 137.883 219.975 139.225 220.675 139.925C221.375 140.625 222.775 140.975 224.875 140.975H231C232.983 140.975 234.442 140.566 235.375 139.75C236.308 138.816 236.775 137.183 236.775 134.85V130.3H237.475V141.85C237.475 146.05 236.425 149.083 234.325 150.95C232.225 152.816 229.425 153.75 225.925 153.75H219.625C214.258 153.75 210.292 152.466 207.725 149.9C205.158 147.216 203.875 143.366 203.875 138.35V108.075Z" fill="white"/>
<path d="M178.543 53.8252V135.2C178.543 137.184 178.893 138.525 179.593 139.225C180.293 139.925 181.635 140.275 183.618 140.275H190.268V153.75H179.068C173.352 153.75 169.152 152.467 166.468 149.9C163.902 147.217 162.618 143.367 162.618 138.35V53.8252H178.543ZM190.268 68.3502V81.1252H154.568V68.3502H190.268Z" fill="white"/>
<path d="M140.789 153.75H125.039V68.35H140.789V153.75ZM124.689 52.075V36.5H141.139V52.075H124.689Z" fill="white"/>
<path fill-rule="evenodd" clip-rule="evenodd" d="M0 50.75L6.60602 83.7801C8.28874 92.1937 15.6762 98.25 24.2565 98.25H61L53.9901 66.0047C52.2334 57.9236 45.1964 52.0793 36.9302 51.8362L0 50.75ZM11.6575 60.597L15.9215 81.917C16.7162 85.8901 20.2047 88.75 24.2565 88.75H49.2129L44.707 68.0227C43.8774 64.2067 40.5544 61.4469 36.6509 61.3321L11.6575 60.597Z" fill="#00A94F"/>
<path d="M95.407 44.75L72.407 139.75L63.9984 105.75H48.5L60.907 154.25H83.407L111.407 44.75H95.407Z" fill="white"/>
<path d="M462.268 203.75L463.045 200.124H465.191L464.414 203.75H462.268Z" fill="#E6E6E6"/>
<path d="M456.398 203.972C455.485 203.972 454.77 203.738 454.252 203.269C453.734 202.801 453.475 202.135 453.475 201.271C453.475 201.099 453.487 200.926 453.512 200.753C453.561 200.581 453.598 200.408 453.623 200.235L458.581 176.74H461.097L456.287 199.384C456.262 199.508 456.237 199.619 456.213 199.717C456.213 199.816 456.213 199.927 456.213 200.05C456.213 201.136 456.792 201.678 457.952 201.678C458.223 201.678 458.544 201.641 458.914 201.567C459.308 201.493 459.666 201.395 459.987 201.271L459.913 203.306C459.444 203.504 458.864 203.664 458.174 203.787C457.508 203.911 456.916 203.972 456.398 203.972Z" fill="#E6E6E6"/>
<path d="M438.095 204.121C436.689 204.121 435.468 203.751 434.432 203.011C433.396 202.271 432.607 201.284 432.064 200.051C431.521 198.817 431.25 197.485 431.25 196.055C431.25 194.525 431.534 193.058 432.101 191.652C432.693 190.221 433.482 188.951 434.469 187.841C435.48 186.706 436.627 185.806 437.91 185.14C439.193 184.474 440.537 184.141 441.943 184.141C443.497 184.141 444.78 184.572 445.791 185.436C446.802 186.274 447.518 187.298 447.937 188.507L448.825 184.474H451.341L447.937 200.458C447.912 200.532 447.888 200.618 447.863 200.717C447.863 200.791 447.863 200.865 447.863 200.939C447.863 201.333 448.097 201.531 448.566 201.531L448.085 203.751C447.888 203.775 447.703 203.8 447.53 203.825C447.382 203.849 447.234 203.862 447.086 203.862C446.519 203.837 446.087 203.689 445.791 203.418C445.52 203.122 445.384 202.776 445.384 202.382C445.384 202.234 445.396 202.073 445.421 201.901C445.446 201.728 445.483 201.494 445.532 201.198C445.606 200.902 445.692 200.507 445.791 200.014C444.804 201.272 443.608 202.271 442.202 203.011C440.821 203.751 439.452 204.121 438.095 204.121ZM439.131 201.901C439.748 201.901 440.401 201.777 441.092 201.531C441.807 201.284 442.498 200.951 443.164 200.532C443.83 200.088 444.422 199.57 444.94 198.978C445.483 198.386 445.877 197.769 446.124 197.128L447.345 191.171C447.246 190.283 446.95 189.481 446.457 188.766C445.964 188.05 445.347 187.471 444.607 187.027C443.867 186.583 443.053 186.361 442.165 186.361C441.055 186.361 440.007 186.632 439.02 187.175C438.033 187.717 437.145 188.445 436.356 189.358C435.591 190.27 434.987 191.282 434.543 192.392C434.099 193.477 433.877 194.575 433.877 195.685C433.877 196.819 434.099 197.855 434.543 198.793C434.987 199.73 435.591 200.482 436.356 201.05C437.145 201.617 438.07 201.901 439.131 201.901Z" fill="#E6E6E6"/>
<path d="M426.851 184.473H429.367L425.297 203.75H422.781L426.851 184.473ZM428.516 176.74H431.032L430.255 180.44H427.739L428.516 176.74Z" fill="#E6E6E6"/>
<path d="M412.336 201.197C412.336 201.049 412.348 200.901 412.373 200.753C412.398 200.58 412.422 200.42 412.447 200.272L415.37 186.471H412.817L413.261 184.473H415.777L417.183 177.961H419.699L418.293 184.473H422.511L422.067 186.471H417.886L415.222 199.014C415.148 199.285 415.099 199.495 415.074 199.643C415.049 199.791 415.037 199.927 415.037 200.05C415.037 200.593 415.21 201 415.555 201.271C415.9 201.518 416.32 201.641 416.813 201.641C417.282 201.641 417.713 201.579 418.108 201.456C418.503 201.333 418.848 201.209 419.144 201.086C419.465 200.963 419.674 200.864 419.773 200.79L419.995 202.825C419.773 202.948 419.44 203.109 418.996 203.306C418.552 203.503 418.034 203.664 417.442 203.787C416.85 203.91 416.221 203.972 415.555 203.972C414.642 203.972 413.878 203.75 413.261 203.306C412.644 202.837 412.336 202.134 412.336 201.197Z" fill="#E6E6E6"/>
<path d="M394.549 184.474H396.88L395.918 188.84C396.608 187.902 397.422 187.088 398.36 186.398C399.322 185.682 400.345 185.127 401.431 184.733C402.516 184.338 403.589 184.141 404.65 184.141C405.661 184.141 406.463 184.326 407.055 184.696C407.671 185.066 408.115 185.596 408.387 186.287C408.683 186.953 408.831 187.767 408.831 188.729C408.831 189.296 408.781 189.888 408.683 190.505C408.609 191.121 408.498 191.775 408.35 192.466L405.982 203.751H403.466L405.76 192.984C405.883 192.367 405.969 191.8 406.019 191.282C406.093 190.764 406.13 190.283 406.13 189.839C406.13 188.679 405.883 187.828 405.39 187.286C404.921 186.718 404.206 186.435 403.244 186.435C402.331 186.435 401.369 186.681 400.358 187.175C399.371 187.643 398.446 188.297 397.583 189.136C396.719 189.95 396.016 190.887 395.474 191.948L392.995 203.751H390.479L394.549 184.474Z" fill="#E6E6E6"/>
<path d="M378.818 204.121C377.239 204.121 375.895 203.763 374.785 203.048C373.675 202.308 372.824 201.321 372.232 200.088C371.64 198.854 371.331 197.473 371.307 195.944C371.307 194.414 371.578 192.947 372.121 191.541C372.688 190.135 373.477 188.877 374.489 187.767C375.525 186.657 376.733 185.781 378.115 185.14C379.496 184.474 381.001 184.141 382.629 184.141C383.837 184.141 384.923 184.338 385.885 184.733C386.847 185.127 387.599 185.707 388.142 186.472C388.709 187.236 388.993 188.198 388.993 189.358C389.017 191.306 388.179 192.749 386.477 193.687C384.799 194.599 382.222 195.056 378.744 195.056C377.979 195.056 377.128 195.043 376.191 195.019C375.278 194.969 374.23 194.895 373.046 194.797L373.416 193.021C374.6 193.095 375.611 193.156 376.45 193.206C377.313 193.23 378.115 193.243 378.855 193.243C380.828 193.243 382.382 193.095 383.517 192.799C384.651 192.478 385.465 192.022 385.959 191.43C386.477 190.838 386.723 190.147 386.699 189.358C386.699 188.593 386.501 187.976 386.107 187.508C385.712 187.014 385.194 186.657 384.553 186.435C383.936 186.213 383.233 186.102 382.444 186.102C381.161 186.102 379.989 186.385 378.929 186.953C377.893 187.495 376.992 188.235 376.228 189.173C375.463 190.085 374.871 191.121 374.452 192.281C374.057 193.44 373.86 194.624 373.86 195.833C373.884 196.992 374.094 198.053 374.489 199.015C374.883 199.977 375.475 200.754 376.265 201.346C377.079 201.913 378.078 202.197 379.262 202.197C380.544 202.197 381.741 201.876 382.851 201.235C383.985 200.593 384.873 199.718 385.515 198.608L387.587 199.237C387.019 200.199 386.279 201.05 385.367 201.79C384.454 202.505 383.443 203.072 382.333 203.492C381.223 203.911 380.051 204.121 378.818 204.121Z" fill="#E6E6E6"/>
<path d="M360.559 201.197C360.559 201.049 360.571 200.901 360.596 200.753C360.62 200.58 360.645 200.42 360.67 200.272L363.593 186.471H361.04L361.484 184.473H364L365.406 177.961H367.922L366.516 184.473H370.734L370.29 186.471H366.109L363.445 199.014C363.371 199.285 363.321 199.495 363.297 199.643C363.272 199.791 363.26 199.927 363.26 200.05C363.26 200.593 363.432 201 363.778 201.271C364.123 201.518 364.542 201.641 365.036 201.641C365.504 201.641 365.936 201.579 366.331 201.456C366.725 201.333 367.071 201.209 367.367 201.086C367.687 200.963 367.897 200.864 367.996 200.79L368.218 202.825C367.996 202.948 367.663 203.109 367.219 203.306C366.775 203.503 366.257 203.664 365.665 203.787C365.073 203.91 364.444 203.972 363.778 203.972C362.865 203.972 362.1 203.75 361.484 203.306C360.867 202.837 360.559 202.134 360.559 201.197Z" fill="#E6E6E6"/>
<path d="M346.294 204.121C344.617 204.121 343.223 203.763 342.113 203.048C341.003 202.308 340.177 201.321 339.634 200.088C339.092 198.854 338.82 197.498 338.82 196.018C338.82 194.39 339.116 192.86 339.708 191.43C340.325 189.999 341.151 188.741 342.187 187.656C343.223 186.546 344.42 185.682 345.776 185.066C347.158 184.449 348.601 184.141 350.105 184.141C351.758 184.141 353.139 184.511 354.249 185.251C355.384 185.991 356.223 186.977 356.765 188.211C357.308 189.419 357.579 190.776 357.579 192.281C357.579 193.909 357.283 195.438 356.691 196.869C356.099 198.299 355.273 199.557 354.212 200.643C353.176 201.728 351.98 202.579 350.623 203.196C349.267 203.812 347.824 204.121 346.294 204.121ZM346.738 201.901C347.774 201.901 348.786 201.679 349.772 201.235C350.759 200.766 351.635 200.112 352.399 199.274C353.189 198.435 353.818 197.461 354.286 196.351C354.755 195.216 354.989 193.983 354.989 192.651C354.989 191.467 354.78 190.406 354.36 189.469C353.966 188.507 353.374 187.754 352.584 187.212C351.82 186.644 350.845 186.361 349.661 186.361C348.625 186.361 347.614 186.595 346.627 187.064C345.641 187.532 344.753 188.198 343.963 189.062C343.199 189.9 342.582 190.887 342.113 192.022C341.645 193.132 341.41 194.353 341.41 195.685C341.41 196.869 341.608 197.942 342.002 198.904C342.422 199.841 343.026 200.581 343.815 201.124C344.605 201.642 345.579 201.901 346.738 201.901Z" fill="#E6E6E6"/>
<path d="M322.403 177.48H332.689C333.923 177.48 334.983 177.813 335.871 178.479C336.784 179.121 337.462 179.959 337.906 180.995C338.375 182.031 338.609 183.129 338.609 184.288C338.609 185.472 338.363 186.644 337.869 187.803C337.401 188.963 336.735 190.023 335.871 190.985C335.033 191.923 334.058 192.675 332.948 193.242C331.838 193.785 330.667 194.056 329.433 194.056H321.441L319.369 203.75H316.816L322.403 177.48ZM329.766 191.762C330.63 191.762 331.431 191.553 332.171 191.133C332.936 190.714 333.602 190.159 334.169 189.468C334.737 188.753 335.181 187.976 335.501 187.137C335.822 186.274 335.982 185.398 335.982 184.51C335.982 183.598 335.81 182.796 335.464 182.105C335.144 181.39 334.687 180.823 334.095 180.403C333.528 179.984 332.862 179.774 332.097 179.774H324.475L321.922 191.762H329.766Z" fill="#E6E6E6"/>
<path d="M290.924 212.002C288.852 212.002 287.236 211.607 286.077 210.818C284.942 210.028 284.116 208.968 283.598 207.636L285.374 206.415C285.867 207.623 286.619 208.524 287.631 209.116C288.667 209.708 289.9 210.004 291.331 210.004C292.49 210.004 293.612 209.769 294.698 209.301C295.783 208.857 296.72 208.178 297.51 207.266C298.299 206.353 298.842 205.206 299.138 203.825L299.952 200.014C298.99 201.222 297.818 202.197 296.437 202.937C295.08 203.652 293.736 204.01 292.404 204.01C291.022 204.01 289.826 203.64 288.815 202.9C287.803 202.16 287.026 201.185 286.484 199.977C285.966 198.768 285.707 197.461 285.707 196.055C285.707 194.525 285.99 193.058 286.558 191.652C287.15 190.221 287.951 188.951 288.963 187.841C289.974 186.706 291.133 185.806 292.441 185.14C293.773 184.474 295.154 184.141 296.585 184.141C298.163 184.141 299.434 184.56 300.396 185.399C301.358 186.237 302.122 187.273 302.69 188.507L303.541 184.474H305.761L301.654 203.825C301.284 205.601 300.556 207.093 299.471 208.302C298.41 209.535 297.127 210.46 295.623 211.077C294.118 211.693 292.552 212.002 290.924 212.002ZM293.588 201.901C294.303 201.901 295.018 201.765 295.734 201.494C296.449 201.222 297.127 200.865 297.769 200.421C298.435 199.952 299.002 199.434 299.471 198.867C299.964 198.299 300.334 197.72 300.581 197.128L301.839 191.171C301.715 190.233 301.395 189.407 300.877 188.692C300.383 187.952 299.767 187.384 299.027 186.99C298.287 186.57 297.485 186.361 296.622 186.361C295.462 186.361 294.377 186.644 293.366 187.212C292.379 187.754 291.503 188.494 290.739 189.432C289.974 190.344 289.37 191.343 288.926 192.429C288.506 193.514 288.297 194.587 288.297 195.648C288.297 196.782 288.519 197.831 288.963 198.793C289.407 199.73 290.023 200.482 290.813 201.05C291.602 201.617 292.527 201.901 293.588 201.901Z" fill="#E6E6E6"/>
<path d="M268.552 184.474H270.883L269.921 188.84C270.612 187.902 271.426 187.088 272.363 186.398C273.325 185.682 274.349 185.127 275.434 184.733C276.52 184.338 277.593 184.141 278.653 184.141C279.665 184.141 280.466 184.326 281.058 184.696C281.675 185.066 282.119 185.596 282.39 186.287C282.686 186.953 282.834 187.767 282.834 188.729C282.834 189.296 282.785 189.888 282.686 190.505C282.612 191.121 282.501 191.775 282.353 192.466L279.985 203.751H277.469L279.763 192.984C279.887 192.367 279.973 191.8 280.022 191.282C280.096 190.764 280.133 190.283 280.133 189.839C280.133 188.679 279.887 187.828 279.393 187.286C278.925 186.718 278.209 186.435 277.247 186.435C276.335 186.435 275.373 186.681 274.361 187.175C273.375 187.643 272.45 188.297 271.586 189.136C270.723 189.95 270.02 190.887 269.477 191.948L266.998 203.751H264.482L268.552 184.474Z" fill="#E6E6E6"/>
<path d="M260.675 184.473H263.191L259.121 203.75H256.605L260.675 184.473ZM262.34 176.74H264.856L264.079 180.44H261.563L262.34 176.74Z" fill="#E6E6E6"/>
<path d="M247.994 184.474H250.362L249.363 189.099C250.325 187.717 251.422 186.607 252.656 185.769C253.889 184.93 255.122 184.486 256.356 184.437C256.553 184.437 256.726 184.449 256.874 184.474C257.022 184.474 257.145 184.486 257.244 184.511L256.763 186.694C255.184 186.743 253.692 187.212 252.286 188.1C250.88 188.988 249.77 190.209 248.956 191.763L246.44 203.751H243.924L247.994 184.474Z" fill="#E6E6E6"/>
<path d="M228.409 204.121C225.399 204.121 223.895 202.468 223.895 199.163C223.895 198.669 223.932 198.151 224.006 197.609C224.08 197.041 224.178 196.437 224.302 195.796L226.744 184.474H229.223L226.929 195.352C226.682 196.462 226.559 197.424 226.559 198.238C226.559 200.68 227.619 201.901 229.741 201.901C230.678 201.901 231.615 201.691 232.553 201.272C233.49 200.828 234.378 200.211 235.217 199.422C236.08 198.608 236.795 197.67 237.363 196.61L239.953 184.474H242.469L239.102 200.199C239.077 200.347 239.052 200.482 239.028 200.606C239.003 200.729 238.991 200.828 238.991 200.902C238.991 201.321 239.225 201.531 239.694 201.531L239.213 203.751C239.015 203.775 238.83 203.8 238.658 203.825C238.485 203.849 238.325 203.849 238.177 203.825C237.659 203.8 237.264 203.664 236.993 203.418C236.721 203.146 236.586 202.801 236.586 202.382C236.586 202.258 236.598 202.11 236.623 201.938C236.647 201.74 236.697 201.444 236.771 201.05C236.845 200.655 236.956 200.1 237.104 199.385C235.969 200.865 234.625 202.024 233.071 202.863C231.541 203.701 229.987 204.121 228.409 204.121Z" fill="#E6E6E6"/>
<path d="M212.414 201.197C212.414 201.049 212.426 200.901 212.451 200.753C212.476 200.58 212.5 200.42 212.525 200.272L215.448 186.471H212.895L213.339 184.473H215.855L217.261 177.961H219.777L218.371 184.473H222.589L222.145 186.471H217.964L215.3 199.014C215.226 199.285 215.177 199.495 215.152 199.643C215.127 199.791 215.115 199.927 215.115 200.05C215.115 200.593 215.288 201 215.633 201.271C215.978 201.518 216.398 201.641 216.891 201.641C217.36 201.641 217.791 201.579 218.186 201.456C218.581 201.333 218.926 201.209 219.222 201.086C219.543 200.963 219.752 200.864 219.851 200.79L220.073 202.825C219.851 202.948 219.518 203.109 219.074 203.306C218.63 203.503 218.112 203.664 217.52 203.787C216.928 203.91 216.299 203.972 215.633 203.972C214.72 203.972 213.956 203.75 213.339 203.306C212.722 202.837 212.414 202.134 212.414 201.197Z" fill="#E6E6E6"/>
<path d="M202.357 184.474H204.725L203.726 189.099C204.688 187.717 205.786 186.607 207.019 185.769C208.252 184.93 209.486 184.486 210.719 184.437C210.916 184.437 211.089 184.449 211.237 184.474C211.385 184.474 211.508 184.486 211.607 184.511L211.126 186.694C209.547 186.743 208.055 187.212 206.649 188.1C205.243 188.988 204.133 190.209 203.319 191.763L200.803 203.751H198.287L202.357 184.474Z" fill="#E6E6E6"/>
<path d="M182.772 204.121C179.762 204.121 178.258 202.468 178.258 199.163C178.258 198.669 178.295 198.151 178.369 197.609C178.443 197.041 178.541 196.437 178.665 195.796L181.107 184.474H183.586L181.292 195.352C181.045 196.462 180.922 197.424 180.922 198.238C180.922 200.68 181.982 201.901 184.104 201.901C185.041 201.901 185.978 201.691 186.916 201.272C187.853 200.828 188.741 200.211 189.58 199.422C190.443 198.608 191.158 197.67 191.726 196.61L194.316 184.474H196.832L193.465 200.199C193.44 200.347 193.415 200.482 193.391 200.606C193.366 200.729 193.354 200.828 193.354 200.902C193.354 201.321 193.588 201.531 194.057 201.531L193.576 203.751C193.378 203.775 193.193 203.8 193.021 203.825C192.848 203.849 192.688 203.849 192.54 203.825C192.022 203.8 191.627 203.664 191.356 203.418C191.084 203.146 190.949 202.801 190.949 202.382C190.949 202.258 190.961 202.11 190.986 201.938C191.01 201.74 191.06 201.444 191.134 201.05C191.208 200.655 191.319 200.1 191.467 199.385C190.332 200.865 188.988 202.024 187.434 202.863C185.904 203.701 184.35 204.121 182.772 204.121Z" fill="#E6E6E6"/>
<path d="M155.976 177.48H157.974L169.666 199.347L174.291 177.517H176.844L171.257 203.75H169.074L157.493 182.29L152.942 203.75H150.389L155.976 177.48Z" fill="#E6E6E6"/>
</svg>
