<svg width="467" height="213" viewBox="0 0 467 213" fill="none" xmlns="http://www.w3.org/2000/svg">
<path d="M431.904 85.6504V136.05C431.904 138.034 432.254 139.375 432.954 140.075C433.654 140.775 435.054 141.125 437.154 141.125H441.529V153.55H432.779C427.179 153.55 423.037 152.267 420.354 149.7C417.787 147.017 416.504 143.167 416.504 138.15V83.7254C416.504 78.5921 417.787 74.7421 420.354 72.1754C423.037 69.4921 427.179 68.1504 432.779 68.1504H442.404V80.5754H437.154C435.054 80.5754 433.654 80.9254 432.954 81.6254C432.254 82.2087 431.904 83.5504 431.904 85.6504ZM450.804 113.475V85.6504C450.804 83.5504 450.454 82.2087 449.754 81.6254C449.171 80.9254 447.829 80.5754 445.729 80.5754H440.129V68.1504H449.929C455.646 68.1504 459.787 69.4921 462.354 72.1754C465.037 74.7421 466.379 78.5921 466.379 83.7254V113.475H450.804ZM450.454 135.875V128.875H465.854V138.15C465.854 143.167 464.571 147.017 462.004 149.7C459.437 152.267 455.296 153.55 449.579 153.55H440.129V141.125H445.204C447.421 141.125 448.821 140.775 449.404 140.075C450.104 139.375 450.454 137.975 450.454 135.875ZM466.379 104.2V115.75H422.104V104.2H466.379Z" fill="#00A94F"/>
<path d="M363.438 153.55H347.688V68.1504H363.438V78.8254V79.8754V153.55ZM396.337 153.55H380.587V86.0004C380.587 83.9004 380.237 82.5587 379.537 81.9754C378.837 81.2754 377.437 80.9254 375.337 80.9254H369.212C367.229 80.9254 365.771 81.3921 364.837 82.3254C363.904 83.2587 363.438 84.8337 363.438 87.0504V92.6504H362.737V80.0504C362.737 75.8504 363.787 72.8171 365.887 70.9504C367.987 69.0837 370.787 68.1504 374.287 68.1504H380.587C385.954 68.1504 389.921 69.4921 392.487 72.1754C395.054 74.7421 396.337 78.5921 396.337 83.7254V153.55Z" fill="#00A94F"/>
<path d="M310.662 120.3V61.85C310.662 59.75 310.312 58.4083 309.612 57.825C309.028 57.125 307.628 56.775 305.412 56.775H299.637V44H310.137C315.853 44 319.995 45.3417 322.562 48.025C325.245 50.5917 326.587 54.3833 326.587 59.4V120.3H310.662ZM310.662 135.7V112.95H326.587V138.15C326.587 143.167 325.245 147.017 322.562 149.7C319.995 152.267 315.853 153.55 310.137 153.55H298.587V140.775H305.412C307.628 140.775 309.028 140.425 309.612 139.725C310.312 139.025 310.662 137.683 310.662 135.7ZM290.187 61.85V120.475H274.262V59.4C274.262 54.3833 275.545 50.5917 278.112 48.025C280.795 45.3417 284.995 44 290.712 44H301.212V56.775H295.437C293.337 56.775 291.937 57.125 291.237 57.825C290.537 58.4083 290.187 59.75 290.187 61.85ZM290.187 111.725V135.7C290.187 137.683 290.537 139.025 291.237 139.725C291.937 140.425 293.337 140.775 295.437 140.775H300.862V153.55H290.712C284.995 153.55 280.795 152.267 278.112 149.7C275.545 147.017 274.262 143.167 274.262 138.15V111.725H290.187Z" fill="#00A94F"/>
<path d="M220.125 114.275H204.375V84.1746C204.375 79.0413 205.658 75.1913 208.225 72.6246C210.792 69.9413 214.758 68.5996 220.125 68.5996H226.425C229.925 68.5996 232.725 69.5329 234.825 71.3996C236.925 73.2663 237.975 76.2996 237.975 80.4996V92.2246H237.275V87.4996C237.275 85.2829 236.808 83.708 235.875 82.7746C234.942 81.8413 233.483 81.3746 231.5 81.3746H225.375C223.275 81.3746 221.875 81.7246 221.175 82.4246C220.475 83.0079 220.125 84.3496 220.125 86.4496V114.275ZM253.025 154H237.275V80.8496V79.6246V68.5996H253.025V154ZM204.375 108.325H220.125V136.15C220.125 138.133 220.475 139.475 221.175 140.175C221.875 140.875 223.275 141.225 225.375 141.225H231.5C233.483 141.225 234.942 140.816 235.875 140C236.808 139.066 237.275 137.433 237.275 135.1V130.55H237.975V142.1C237.975 146.3 236.925 149.333 234.825 151.2C232.725 153.066 229.925 154 226.425 154H220.125C214.758 154 210.792 152.716 208.225 150.15C205.658 147.466 204.375 143.616 204.375 138.6V108.325Z" fill="#343434"/>
<path d="M179.043 54.0752V135.45C179.043 137.434 179.393 138.775 180.093 139.475C180.793 140.175 182.135 140.525 184.118 140.525H190.768V154H179.568C173.852 154 169.652 152.717 166.968 150.15C164.402 147.467 163.118 143.617 163.118 138.6V54.0752H179.043ZM190.768 68.6002V81.3752H155.068V68.6002H190.768Z" fill="#343434"/>
<path d="M141.289 154H125.539V68.6H141.289V154ZM125.189 52.325V36.75H141.639V52.325H125.189Z" fill="#343434"/>
<path fill-rule="evenodd" clip-rule="evenodd" d="M0.5 51L7.10602 84.0301C8.78874 92.4437 16.1762 98.5 24.7565 98.5H61.5L54.4901 66.2547C52.7334 58.1736 45.6964 52.3293 37.4302 52.0862L0.5 51ZM12.1575 60.847L16.4215 82.167C17.2162 86.1401 20.7047 89 24.7565 89H49.7129L45.207 68.2727C44.3774 64.4567 41.0544 61.6969 37.1509 61.5821L12.1575 60.847Z" fill="#00A94F"/>
<path d="M95.907 45L72.907 140L64.4984 106H49L61.407 154.5H83.907L111.907 45H95.907Z" fill="#343434"/>
<path d="M462.768 204L463.545 200.374H465.691L464.914 204H462.768Z" fill="#8F8F8F"/>
<path d="M456.898 204.222C455.985 204.222 455.27 203.988 454.752 203.519C454.234 203.051 453.975 202.385 453.975 201.521C453.975 201.349 453.987 201.176 454.012 201.003C454.061 200.831 454.098 200.658 454.123 200.485L459.081 176.99H461.597L456.787 199.634C456.762 199.758 456.737 199.869 456.713 199.967C456.713 200.066 456.713 200.177 456.713 200.3C456.713 201.386 457.292 201.928 458.452 201.928C458.723 201.928 459.044 201.891 459.414 201.817C459.808 201.743 460.166 201.645 460.487 201.521L460.413 203.556C459.944 203.754 459.364 203.914 458.674 204.037C458.008 204.161 457.416 204.222 456.898 204.222Z" fill="#8F8F8F"/>
<path d="M438.595 204.371C437.189 204.371 435.968 204.001 434.932 203.261C433.896 202.521 433.107 201.534 432.564 200.301C432.021 199.067 431.75 197.735 431.75 196.305C431.75 194.775 432.034 193.308 432.601 191.902C433.193 190.471 433.982 189.201 434.969 188.091C435.98 186.956 437.127 186.056 438.41 185.39C439.693 184.724 441.037 184.391 442.443 184.391C443.997 184.391 445.28 184.822 446.291 185.686C447.302 186.524 448.018 187.548 448.437 188.757L449.325 184.724H451.841L448.437 200.708C448.412 200.782 448.388 200.868 448.363 200.967C448.363 201.041 448.363 201.115 448.363 201.189C448.363 201.583 448.597 201.781 449.066 201.781L448.585 204.001C448.388 204.025 448.203 204.05 448.03 204.075C447.882 204.099 447.734 204.112 447.586 204.112C447.019 204.087 446.587 203.939 446.291 203.668C446.02 203.372 445.884 203.026 445.884 202.632C445.884 202.484 445.896 202.323 445.921 202.151C445.946 201.978 445.983 201.744 446.032 201.448C446.106 201.152 446.192 200.757 446.291 200.264C445.304 201.522 444.108 202.521 442.702 203.261C441.321 204.001 439.952 204.371 438.595 204.371ZM439.631 202.151C440.248 202.151 440.901 202.027 441.592 201.781C442.307 201.534 442.998 201.201 443.664 200.782C444.33 200.338 444.922 199.82 445.44 199.228C445.983 198.636 446.377 198.019 446.624 197.378L447.845 191.421C447.746 190.533 447.45 189.731 446.957 189.016C446.464 188.3 445.847 187.721 445.107 187.277C444.367 186.833 443.553 186.611 442.665 186.611C441.555 186.611 440.507 186.882 439.52 187.425C438.533 187.967 437.645 188.695 436.856 189.608C436.091 190.52 435.487 191.532 435.043 192.642C434.599 193.727 434.377 194.825 434.377 195.935C434.377 197.069 434.599 198.105 435.043 199.043C435.487 199.98 436.091 200.732 436.856 201.3C437.645 201.867 438.57 202.151 439.631 202.151Z" fill="#8F8F8F"/>
<path d="M427.351 184.723H429.867L425.797 204H423.281L427.351 184.723ZM429.016 176.99H431.532L430.755 180.69H428.239L429.016 176.99Z" fill="#8F8F8F"/>
<path d="M412.836 201.447C412.836 201.299 412.848 201.151 412.873 201.003C412.898 200.83 412.922 200.67 412.947 200.522L415.87 186.721H413.317L413.761 184.723H416.277L417.683 178.211H420.199L418.793 184.723H423.011L422.567 186.721H418.386L415.722 199.264C415.648 199.535 415.599 199.745 415.574 199.893C415.549 200.041 415.537 200.177 415.537 200.3C415.537 200.843 415.71 201.25 416.055 201.521C416.4 201.768 416.82 201.891 417.313 201.891C417.782 201.891 418.213 201.829 418.608 201.706C419.003 201.583 419.348 201.459 419.644 201.336C419.965 201.213 420.174 201.114 420.273 201.04L420.495 203.075C420.273 203.198 419.94 203.359 419.496 203.556C419.052 203.753 418.534 203.914 417.942 204.037C417.35 204.16 416.721 204.222 416.055 204.222C415.142 204.222 414.378 204 413.761 203.556C413.144 203.087 412.836 202.384 412.836 201.447Z" fill="#8F8F8F"/>
<path d="M395.049 184.724H397.38L396.418 189.09C397.108 188.152 397.922 187.338 398.86 186.648C399.822 185.932 400.845 185.377 401.931 184.983C403.016 184.588 404.089 184.391 405.15 184.391C406.161 184.391 406.963 184.576 407.555 184.946C408.171 185.316 408.615 185.846 408.887 186.537C409.183 187.203 409.331 188.017 409.331 188.979C409.331 189.546 409.281 190.138 409.183 190.755C409.109 191.371 408.998 192.025 408.85 192.716L406.482 204.001H403.966L406.26 193.234C406.383 192.617 406.469 192.05 406.519 191.532C406.593 191.014 406.63 190.533 406.63 190.089C406.63 188.929 406.383 188.078 405.89 187.536C405.421 186.968 404.706 186.685 403.744 186.685C402.831 186.685 401.869 186.931 400.858 187.425C399.871 187.893 398.946 188.547 398.083 189.386C397.219 190.2 396.516 191.137 395.974 192.198L393.495 204.001H390.979L395.049 184.724Z" fill="#8F8F8F"/>
<path d="M379.318 204.371C377.739 204.371 376.395 204.013 375.285 203.298C374.175 202.558 373.324 201.571 372.732 200.338C372.14 199.104 371.831 197.723 371.807 196.194C371.807 194.664 372.078 193.197 372.621 191.791C373.188 190.385 373.977 189.127 374.989 188.017C376.025 186.907 377.233 186.031 378.615 185.39C379.996 184.724 381.501 184.391 383.129 184.391C384.337 184.391 385.423 184.588 386.385 184.983C387.347 185.377 388.099 185.957 388.642 186.722C389.209 187.486 389.493 188.448 389.493 189.608C389.517 191.556 388.679 192.999 386.977 193.937C385.299 194.849 382.722 195.306 379.244 195.306C378.479 195.306 377.628 195.293 376.691 195.269C375.778 195.219 374.73 195.145 373.546 195.047L373.916 193.271C375.1 193.345 376.111 193.406 376.95 193.456C377.813 193.48 378.615 193.493 379.355 193.493C381.328 193.493 382.882 193.345 384.017 193.049C385.151 192.728 385.965 192.272 386.459 191.68C386.977 191.088 387.223 190.397 387.199 189.608C387.199 188.843 387.001 188.226 386.607 187.758C386.212 187.264 385.694 186.907 385.053 186.685C384.436 186.463 383.733 186.352 382.944 186.352C381.661 186.352 380.489 186.635 379.429 187.203C378.393 187.745 377.492 188.485 376.728 189.423C375.963 190.335 375.371 191.371 374.952 192.531C374.557 193.69 374.36 194.874 374.36 196.083C374.384 197.242 374.594 198.303 374.989 199.265C375.383 200.227 375.975 201.004 376.765 201.596C377.579 202.163 378.578 202.447 379.762 202.447C381.044 202.447 382.241 202.126 383.351 201.485C384.485 200.843 385.373 199.968 386.015 198.858L388.087 199.487C387.519 200.449 386.779 201.3 385.867 202.04C384.954 202.755 383.943 203.322 382.833 203.742C381.723 204.161 380.551 204.371 379.318 204.371Z" fill="#8F8F8F"/>
<path d="M361.059 201.447C361.059 201.299 361.071 201.151 361.096 201.003C361.12 200.83 361.145 200.67 361.17 200.522L364.093 186.721H361.54L361.984 184.723H364.5L365.906 178.211H368.422L367.016 184.723H371.234L370.79 186.721H366.609L363.945 199.264C363.871 199.535 363.821 199.745 363.797 199.893C363.772 200.041 363.76 200.177 363.76 200.3C363.76 200.843 363.932 201.25 364.278 201.521C364.623 201.768 365.042 201.891 365.536 201.891C366.004 201.891 366.436 201.829 366.831 201.706C367.225 201.583 367.571 201.459 367.867 201.336C368.187 201.213 368.397 201.114 368.496 201.04L368.718 203.075C368.496 203.198 368.163 203.359 367.719 203.556C367.275 203.753 366.757 203.914 366.165 204.037C365.573 204.16 364.944 204.222 364.278 204.222C363.365 204.222 362.6 204 361.984 203.556C361.367 203.087 361.059 202.384 361.059 201.447Z" fill="#8F8F8F"/>
<path d="M346.794 204.371C345.117 204.371 343.723 204.013 342.613 203.298C341.503 202.558 340.677 201.571 340.134 200.338C339.592 199.104 339.32 197.748 339.32 196.268C339.32 194.64 339.616 193.11 340.208 191.68C340.825 190.249 341.651 188.991 342.687 187.906C343.723 186.796 344.92 185.932 346.276 185.316C347.658 184.699 349.101 184.391 350.605 184.391C352.258 184.391 353.639 184.761 354.749 185.501C355.884 186.241 356.723 187.227 357.265 188.461C357.808 189.669 358.079 191.026 358.079 192.531C358.079 194.159 357.783 195.688 357.191 197.119C356.599 198.549 355.773 199.807 354.712 200.893C353.676 201.978 352.48 202.829 351.123 203.446C349.767 204.062 348.324 204.371 346.794 204.371ZM347.238 202.151C348.274 202.151 349.286 201.929 350.272 201.485C351.259 201.016 352.135 200.362 352.899 199.524C353.689 198.685 354.318 197.711 354.786 196.601C355.255 195.466 355.489 194.233 355.489 192.901C355.489 191.717 355.28 190.656 354.86 189.719C354.466 188.757 353.874 188.004 353.084 187.462C352.32 186.894 351.345 186.611 350.161 186.611C349.125 186.611 348.114 186.845 347.127 187.314C346.141 187.782 345.253 188.448 344.463 189.312C343.699 190.15 343.082 191.137 342.613 192.272C342.145 193.382 341.91 194.603 341.91 195.935C341.91 197.119 342.108 198.192 342.502 199.154C342.922 200.091 343.526 200.831 344.315 201.374C345.105 201.892 346.079 202.151 347.238 202.151Z" fill="#8F8F8F"/>
<path d="M322.903 177.73H333.189C334.423 177.73 335.483 178.063 336.371 178.729C337.284 179.371 337.962 180.209 338.406 181.245C338.875 182.281 339.109 183.379 339.109 184.538C339.109 185.722 338.863 186.894 338.369 188.053C337.901 189.213 337.235 190.273 336.371 191.235C335.533 192.173 334.558 192.925 333.448 193.492C332.338 194.035 331.167 194.306 329.933 194.306H321.941L319.869 204H317.316L322.903 177.73ZM330.266 192.012C331.13 192.012 331.931 191.803 332.671 191.383C333.436 190.964 334.102 190.409 334.669 189.718C335.237 189.003 335.681 188.226 336.001 187.387C336.322 186.524 336.482 185.648 336.482 184.76C336.482 183.848 336.31 183.046 335.964 182.355C335.644 181.64 335.187 181.073 334.595 180.653C334.028 180.234 333.362 180.024 332.597 180.024H324.975L322.422 192.012H330.266Z" fill="#8F8F8F"/>
<path d="M291.424 212.252C289.352 212.252 287.736 211.857 286.577 211.068C285.442 210.278 284.616 209.218 284.098 207.886L285.874 206.665C286.367 207.873 287.119 208.774 288.131 209.366C289.167 209.958 290.4 210.254 291.831 210.254C292.99 210.254 294.112 210.019 295.198 209.551C296.283 209.107 297.22 208.428 298.01 207.516C298.799 206.603 299.342 205.456 299.638 204.075L300.452 200.264C299.49 201.472 298.318 202.447 296.937 203.187C295.58 203.902 294.236 204.26 292.904 204.26C291.522 204.26 290.326 203.89 289.315 203.15C288.303 202.41 287.526 201.435 286.984 200.227C286.466 199.018 286.207 197.711 286.207 196.305C286.207 194.775 286.49 193.308 287.058 191.902C287.65 190.471 288.451 189.201 289.463 188.091C290.474 186.956 291.633 186.056 292.941 185.39C294.273 184.724 295.654 184.391 297.085 184.391C298.663 184.391 299.934 184.81 300.896 185.649C301.858 186.487 302.622 187.523 303.19 188.757L304.041 184.724H306.261L302.154 204.075C301.784 205.851 301.056 207.343 299.971 208.552C298.91 209.785 297.627 210.71 296.123 211.327C294.618 211.943 293.052 212.252 291.424 212.252ZM294.088 202.151C294.803 202.151 295.518 202.015 296.234 201.744C296.949 201.472 297.627 201.115 298.269 200.671C298.935 200.202 299.502 199.684 299.971 199.117C300.464 198.549 300.834 197.97 301.081 197.378L302.339 191.421C302.215 190.483 301.895 189.657 301.377 188.942C300.883 188.202 300.267 187.634 299.527 187.24C298.787 186.82 297.985 186.611 297.122 186.611C295.962 186.611 294.877 186.894 293.866 187.462C292.879 188.004 292.003 188.744 291.239 189.682C290.474 190.594 289.87 191.593 289.426 192.679C289.006 193.764 288.797 194.837 288.797 195.898C288.797 197.032 289.019 198.081 289.463 199.043C289.907 199.98 290.523 200.732 291.313 201.3C292.102 201.867 293.027 202.151 294.088 202.151Z" fill="#8F8F8F"/>
<path d="M269.052 184.724H271.383L270.421 189.09C271.112 188.152 271.926 187.338 272.863 186.648C273.825 185.932 274.849 185.377 275.934 184.983C277.02 184.588 278.093 184.391 279.153 184.391C280.165 184.391 280.966 184.576 281.558 184.946C282.175 185.316 282.619 185.846 282.89 186.537C283.186 187.203 283.334 188.017 283.334 188.979C283.334 189.546 283.285 190.138 283.186 190.755C283.112 191.371 283.001 192.025 282.853 192.716L280.485 204.001H277.969L280.263 193.234C280.387 192.617 280.473 192.05 280.522 191.532C280.596 191.014 280.633 190.533 280.633 190.089C280.633 188.929 280.387 188.078 279.893 187.536C279.425 186.968 278.709 186.685 277.747 186.685C276.835 186.685 275.873 186.931 274.861 187.425C273.875 187.893 272.95 188.547 272.086 189.386C271.223 190.2 270.52 191.137 269.977 192.198L267.498 204.001H264.982L269.052 184.724Z" fill="#8F8F8F"/>
<path d="M261.175 184.723H263.691L259.621 204H257.105L261.175 184.723ZM262.84 176.99H265.356L264.579 180.69H262.063L262.84 176.99Z" fill="#8F8F8F"/>
<path d="M248.494 184.724H250.862L249.863 189.349C250.825 187.967 251.922 186.857 253.156 186.019C254.389 185.18 255.622 184.736 256.856 184.687C257.053 184.687 257.226 184.699 257.374 184.724C257.522 184.724 257.645 184.736 257.744 184.761L257.263 186.944C255.684 186.993 254.192 187.462 252.786 188.35C251.38 189.238 250.27 190.459 249.456 192.013L246.94 204.001H244.424L248.494 184.724Z" fill="#8F8F8F"/>
<path d="M228.909 204.371C225.899 204.371 224.395 202.718 224.395 199.413C224.395 198.919 224.432 198.401 224.506 197.859C224.58 197.291 224.678 196.687 224.802 196.046L227.244 184.724H229.723L227.429 195.602C227.182 196.712 227.059 197.674 227.059 198.488C227.059 200.93 228.119 202.151 230.241 202.151C231.178 202.151 232.115 201.941 233.053 201.522C233.99 201.078 234.878 200.461 235.717 199.672C236.58 198.858 237.295 197.92 237.863 196.86L240.453 184.724H242.969L239.602 200.449C239.577 200.597 239.552 200.732 239.528 200.856C239.503 200.979 239.491 201.078 239.491 201.152C239.491 201.571 239.725 201.781 240.194 201.781L239.713 204.001C239.515 204.025 239.33 204.05 239.158 204.075C238.985 204.099 238.825 204.099 238.677 204.075C238.159 204.05 237.764 203.914 237.493 203.668C237.221 203.396 237.086 203.051 237.086 202.632C237.086 202.508 237.098 202.36 237.123 202.188C237.147 201.99 237.197 201.694 237.271 201.3C237.345 200.905 237.456 200.35 237.604 199.635C236.469 201.115 235.125 202.274 233.571 203.113C232.041 203.951 230.487 204.371 228.909 204.371Z" fill="#8F8F8F"/>
<path d="M212.914 201.447C212.914 201.299 212.926 201.151 212.951 201.003C212.976 200.83 213 200.67 213.025 200.522L215.948 186.721H213.395L213.839 184.723H216.355L217.761 178.211H220.277L218.871 184.723H223.089L222.645 186.721H218.464L215.8 199.264C215.726 199.535 215.677 199.745 215.652 199.893C215.627 200.041 215.615 200.177 215.615 200.3C215.615 200.843 215.788 201.25 216.133 201.521C216.478 201.768 216.898 201.891 217.391 201.891C217.86 201.891 218.291 201.829 218.686 201.706C219.081 201.583 219.426 201.459 219.722 201.336C220.043 201.213 220.252 201.114 220.351 201.04L220.573 203.075C220.351 203.198 220.018 203.359 219.574 203.556C219.13 203.753 218.612 203.914 218.02 204.037C217.428 204.16 216.799 204.222 216.133 204.222C215.22 204.222 214.456 204 213.839 203.556C213.222 203.087 212.914 202.384 212.914 201.447Z" fill="#8F8F8F"/>
<path d="M202.857 184.724H205.225L204.226 189.349C205.188 187.967 206.286 186.857 207.519 186.019C208.752 185.18 209.986 184.736 211.219 184.687C211.416 184.687 211.589 184.699 211.737 184.724C211.885 184.724 212.008 184.736 212.107 184.761L211.626 186.944C210.047 186.993 208.555 187.462 207.149 188.35C205.743 189.238 204.633 190.459 203.819 192.013L201.303 204.001H198.787L202.857 184.724Z" fill="#8F8F8F"/>
<path d="M183.272 204.371C180.262 204.371 178.758 202.718 178.758 199.413C178.758 198.919 178.795 198.401 178.869 197.859C178.943 197.291 179.041 196.687 179.165 196.046L181.607 184.724H184.086L181.792 195.602C181.545 196.712 181.422 197.674 181.422 198.488C181.422 200.93 182.482 202.151 184.604 202.151C185.541 202.151 186.478 201.941 187.416 201.522C188.353 201.078 189.241 200.461 190.08 199.672C190.943 198.858 191.658 197.92 192.226 196.86L194.816 184.724H197.332L193.965 200.449C193.94 200.597 193.915 200.732 193.891 200.856C193.866 200.979 193.854 201.078 193.854 201.152C193.854 201.571 194.088 201.781 194.557 201.781L194.076 204.001C193.878 204.025 193.693 204.05 193.521 204.075C193.348 204.099 193.188 204.099 193.04 204.075C192.522 204.05 192.127 203.914 191.856 203.668C191.584 203.396 191.449 203.051 191.449 202.632C191.449 202.508 191.461 202.36 191.486 202.188C191.51 201.99 191.56 201.694 191.634 201.3C191.708 200.905 191.819 200.35 191.967 199.635C190.832 201.115 189.488 202.274 187.934 203.113C186.404 203.951 184.85 204.371 183.272 204.371Z" fill="#8F8F8F"/>
<path d="M156.476 177.73H158.474L170.166 199.597L174.791 177.767H177.344L171.757 204H169.574L157.993 182.54L153.442 204H150.889L156.476 177.73Z" fill="#8F8F8F"/>
</svg>
